<?xml version="1.0" encoding="UTF-8"?>
<!DOCTYPE svg PUBLIC "-//W3C//DTD SVG 1.1//EN" "http://www.w3.org/Graphics/SVG/1.1/DTD/svg11.dtd">
<!-- Creator: CorelDRAW X7 -->
<svg xmlns="http://www.w3.org/2000/svg" xml:space="preserve" width="228.6mm" height="173.547mm" version="1.1" style="shape-rendering:geometricPrecision; text-rendering:geometricPrecision; image-rendering:optimizeQuality; fill-rule:evenodd; clip-rule:evenodd"
viewBox="0 0 2496 1895"
 xmlns:xlink="http://www.w3.org/1999/xlink">
 <defs>
  <style type="text/css">
   <![CDATA[
    .fil34 {fill:#00359F}
    .fil32 {fill:#0042C5}
    .fil29 {fill:#14161E}
    .fil5 {fill:#171923}
    .fil30 {fill:#1F202D}
    .fil6 {fill:#2A2B3D}
    .fil13 {fill:#2D292A}
    .fil17 {fill:#4B4D6D}
    .fil25 {fill:#525476}
    .fil23 {fill:#542633}
    .fil11 {fill:#54D15F}
    .fil16 {fill:#55597C}
    .fil12 {fill:#61648A}
    .fil22 {fill:#6D3744}
    .fil4 {fill:#799AE0}
    .fil26 {fill:#7D819E}
    .fil33 {fill:#A84F6F}
    .fil15 {fill:#ABBBCE}
    .fil14 {fill:#B0C1CE}
    .fil3 {fill:#B0C3ED}
    .fil24 {fill:#B9425F}
    .fil7 {fill:#D0E6EF}
    .fil20 {fill:#D1686B}
    .fil9 {fill:#D35473}
    .fil21 {fill:#E88C9F}
    .fil19 {fill:#EDADC7}
    .fil2 {fill:#EDEDED}
    .fil27 {fill:#F49947}
    .fil18 {fill:#F4B8AB}
    .fil35 {fill:#F4F4F4}
    .fil31 {fill:#F6FBFF}
    .fil1 {fill:#F7F7F7}
    .fil28 {fill:#FFBC3A}
    .fil10 {fill:#FFC55A}
    .fil8 {fill:white}
    .fil0 {fill:url(#id0)}
   ]]>
  </style>
  <linearGradient id="id0" gradientUnits="userSpaceOnUse" x1="459.776" y1="964.694" x2="871.885" y2="964.694">
   <stop offset="0" style="stop-opacity:1; stop-color:#FBF5E8"/>
   <stop offset="1" style="stop-opacity:1; stop-color:#FEFEFE"/>
  </linearGradient>
 </defs>
 <g id="Layer_x0020_1">
  <metadata id="CorelCorpID_0Corel-Layer"/>
  <g id="_2048895638960">
   <rect class="fil0" x="402" y="148" width="528" height="1633"/>
   <ellipse class="fil1" cx="1248" cy="1764" rx="1248" ry="131"/>
   <ellipse class="fil2" cx="1248" cy="1764" rx="940" ry="76"/>
   <polygon class="fil3" points="672,1187 1932,1187 1932,1137 672,1137 "/>
   <polygon class="fil3" points="833,1816 777,1816 777,1183 833,1183 "/>
   <polygon class="fil3" points="1832,1816 1777,1816 1777,1183 1832,1183 "/>
   <polygon class="fil4" points="833,1246 777,1246 777,1183 833,1183 "/>
   <polygon class="fil4" points="1832,1246 1777,1246 1777,1183 1832,1183 "/>
   <polygon class="fil5" points="1567,1113 1430,1113 1439,1023 1558,1023 "/>
   <path class="fil6" d="M1605 1135l-212 0c0,-14 12,-25 26,-25l160 0c15,0 26,11 26,25z"/>
   <path class="fil6" d="M1728 1031l-458 0c-25,0 -45,-20 -45,-45l0 -277c0,-25 20,-45 45,-45l458 0c25,0 46,20 46,45l0 277c0,25 -21,45 -46,45z"/>
   <polygon class="fil7" points="1750,984 1248,984 1248,685 1750,685 "/>
   <path class="fil5" d="M1513 1009c0,8 -6,14 -14,14 -8,0 -14,-6 -14,-14 0,-8 6,-14 14,-14 8,0 14,6 14,14z"/>
   <polygon class="fil8" points="1727,727 1272,727 1272,704 1727,704 "/>
   <path class="fil9" d="M1290 716c0,3 -2,5 -5,5 -2,0 -5,-2 -5,-5 0,-3 3,-5 5,-5 3,0 5,2 5,5z"/>
   <path class="fil10" d="M1309 716c0,3 -2,5 -5,5 -3,0 -5,-2 -5,-5 0,-3 2,-5 5,-5 3,0 5,2 5,5z"/>
   <path class="fil11" d="M1328 716c0,3 -3,5 -5,5 -3,0 -5,-2 -5,-5 0,-3 2,-5 5,-5 2,0 5,2 5,5z"/>
   <path class="fil12" d="M1705 712l15 0c1,0 1,-1 1,-2 0,0 0,-1 -1,-1l-15 0c-1,0 -1,1 -1,1 0,1 0,2 1,2z"/>
   <path class="fil12" d="M1705 717l15 0c1,0 1,-1 1,-1 0,-1 0,-2 -1,-2l-15 0c-1,0 -1,1 -1,2 0,0 0,1 1,1z"/>
   <path class="fil12" d="M1705 722l15 0c1,0 1,-1 1,-1 0,-1 0,-1 -1,-1l-15 0c-1,0 -1,0 -1,1 0,0 0,1 1,1z"/>
   <path class="fil11" d="M1582 756l35 0c1,0 2,-1 2,-2 0,-2 -1,-3 -2,-3l-35 0c-2,0 -3,1 -3,3 0,1 1,2 3,2z"/>
   <path class="fil13" d="M1624 756l16 0c2,0 3,-1 3,-2 0,-2 -1,-3 -3,-3l-16 0c-1,0 -3,1 -3,3 0,1 2,2 3,2z"/>
   <path class="fil11" d="M1646 756l53 0c1,0 2,-1 2,-2 0,-2 -1,-3 -2,-3l-53 0c-1,0 -2,1 -2,3 0,1 1,2 2,2z"/>
   <path class="fil10" d="M1564 778l52 0c1,0 2,-1 2,-2 0,-1 -1,-3 -2,-3l-52 0c-1,0 -2,2 -2,3 0,1 1,2 2,2z"/>
   <path class="fil9" d="M1623 778l33 0c1,0 2,-1 2,-2 0,-1 -1,-3 -2,-3l-33 0c-2,0 -3,2 -3,3 0,1 1,2 3,2z"/>
   <path class="fil11" d="M1662 778l22 0c1,0 3,-1 3,-2 0,-1 -2,-3 -3,-3l-22 0c-1,0 -2,2 -2,3 0,1 1,2 2,2z"/>
   <path class="fil9" d="M1691 778l22 0c2,0 3,-1 3,-2 0,-1 -1,-3 -3,-3l-22 0c-1,0 -2,2 -2,3 0,1 1,2 2,2z"/>
   <path class="fil13" d="M1569 800l29 0c2,0 3,-1 3,-2 0,-1 -1,-2 -3,-2l-29 0c-2,0 -3,1 -3,2 0,1 1,2 3,2z"/>
   <path class="fil9" d="M1606 800l23 0c1,0 2,-1 2,-2 0,-1 -1,-2 -2,-2l-23 0c-2,0 -3,1 -3,2 0,1 1,2 3,2z"/>
   <path class="fil10" d="M1635 800l43 0c1,0 2,-1 2,-2 0,-1 -1,-2 -2,-2l-43 0c-1,0 -2,1 -2,2 0,1 1,2 2,2z"/>
   <path class="fil13" d="M1683 800l14 0c1,0 2,-1 2,-2 0,-1 -1,-2 -2,-2l-14 0c-1,0 -2,1 -2,2 0,1 1,2 2,2z"/>
   <path class="fil10" d="M1554 845l8 0c1,0 2,-1 2,-2 0,-2 -1,-3 -2,-3l-8 0c-1,0 -2,1 -2,3 0,1 1,2 2,2z"/>
   <path class="fil11" d="M1569 845l44 0c1,0 2,-1 2,-2 0,-2 -1,-3 -2,-3l-44 0c-1,0 -2,1 -2,3 0,1 1,2 2,2z"/>
   <path class="fil9" d="M1619 845l31 0c1,0 2,-1 2,-2 0,-2 -1,-3 -2,-3l-31 0c-2,0 -3,1 -3,3 0,1 1,2 3,2z"/>
   <path class="fil11" d="M1655 845l40 0c1,0 2,-1 2,-2 0,-2 -1,-3 -2,-3l-40 0c-2,0 -3,1 -3,3 0,1 1,2 3,2z"/>
   <path class="fil10" d="M1643 889l58 0c1,0 2,-1 2,-2 0,-1 -1,-2 -2,-2l-58 0c-1,0 -2,1 -2,2 0,1 1,2 2,2z"/>
   <path class="fil11" d="M1569 867l29 0c2,0 3,-1 3,-2 0,-1 -1,-3 -3,-3l-29 0c-2,0 -3,2 -3,3 0,1 1,2 3,2z"/>
   <path class="fil9" d="M1606 867l16 0c1,0 2,-1 2,-2 0,-1 -1,-3 -2,-3l-16 0c-2,0 -3,2 -3,3 0,1 1,2 3,2z"/>
   <path class="fil13" d="M1628 867l32 0c1,0 3,-1 3,-2 0,-1 -2,-3 -3,-3l-32 0c-2,0 -3,2 -3,3 0,1 1,2 3,2z"/>
   <path class="fil9" d="M1668 867l32 0c2,0 3,-1 3,-2 0,-1 -1,-3 -3,-3l-32 0c-2,0 -3,2 -3,3 0,1 1,2 3,2z"/>
   <path class="fil10" d="M1570 889l23 0c1,0 2,-1 2,-2 0,-1 -1,-2 -2,-2l-23 0c-1,0 -2,1 -2,2 0,1 1,2 2,2z"/>
   <path class="fil13" d="M1600 889l10 0c1,0 2,-1 2,-2 0,-1 -1,-2 -2,-2l-10 0c-1,0 -3,1 -3,2 0,1 2,2 3,2z"/>
   <path class="fil11" d="M1616 889l20 0c1,0 2,-1 2,-2 0,-1 -1,-2 -2,-2l-20 0c-2,0 -3,1 -3,2 0,1 1,2 3,2z"/>
   <path class="fil9" d="M1606 931l22 0c1,0 2,-1 2,-2 0,-1 -1,-2 -2,-2l-22 0c-2,0 -3,1 -3,2 0,1 1,2 3,2z"/>
   <path class="fil13" d="M1635 931l25 0c1,0 3,-1 3,-2 0,-1 -2,-2 -3,-2l-25 0c-2,0 -3,1 -3,2 0,1 1,2 3,2z"/>
   <path class="fil10" d="M1666 931l41 0c1,0 2,-1 2,-2 0,-1 -1,-2 -2,-2l-41 0c-1,0 -2,1 -2,2 0,1 1,2 2,2z"/>
   <path class="fil9" d="M1585 954l17 0c1,0 2,-2 2,-3 0,-1 -1,-2 -2,-2l-17 0c-1,0 -2,1 -2,2 0,1 1,3 2,3z"/>
   <path class="fil13" d="M1609 954l27 0c1,0 2,-2 2,-3 0,-1 -1,-2 -2,-2l-27 0c-1,0 -2,1 -2,2 0,1 1,3 2,3z"/>
   <path class="fil10" d="M1642 954l24 0c1,0 2,-2 2,-3 0,-1 -1,-2 -2,-2l-24 0c-2,0 -3,1 -3,2 0,1 1,3 3,3z"/>
   <path class="fil11" d="M1673 954l37 0c2,0 3,-2 3,-3 0,-1 -1,-2 -3,-2l-37 0c-1,0 -2,1 -2,2 0,1 1,3 2,3z"/>
   <path class="fil14" d="M1568 756l-8 0c-1,0 -2,-1 -2,-2 0,-2 1,-3 2,-3l8 0c1,0 2,1 2,3 0,1 -1,2 -2,2z"/>
   <path class="fil14" d="M1548 778l-8 0c-1,0 -2,-1 -2,-2 0,-1 1,-3 2,-3l8 0c1,0 2,2 2,3 0,1 -1,2 -2,2z"/>
   <path class="fil14" d="M1557 800l-8 0c-1,0 -2,-1 -2,-2 0,-1 1,-2 2,-2l8 0c1,0 2,1 2,2 0,1 -1,2 -2,2z"/>
   <path class="fil14" d="M1539 823l-7 0c-2,0 -3,-1 -3,-3 0,-1 1,-2 3,-2l7 0c1,0 2,1 2,2 0,2 -1,3 -2,3z"/>
   <path class="fil14" d="M1541 842c-1,-1 -2,-1 -3,-2l1 0c1,0 2,1 2,2z"/>
   <path class="fil14" d="M1587 931l-7 0c-2,0 -3,-1 -3,-2 0,-1 1,-2 3,-2l7 0c2,0 3,1 3,2 0,1 -1,2 -3,2z"/>
   <path class="fil14" d="M1570 954l-8 0c-1,0 -2,-2 -2,-3 0,-1 1,-2 2,-2l8 0c1,0 2,1 2,2 0,1 -1,3 -2,3z"/>
   <polygon class="fil15" points="1386,856 1272,856 1272,748 1386,748 "/>
   <polygon class="fil12" points="1499,758 1400,758 1400,748 1499,748 "/>
   <polygon class="fil12" points="1499,782 1400,782 1400,773 1499,773 "/>
   <polygon class="fil15" points="1499,807 1400,807 1400,797 1499,797 "/>
   <polygon class="fil15" points="1499,831 1400,831 1400,821 1499,821 "/>
   <polygon class="fil15" points="1499,856 1400,856 1400,846 1499,846 "/>
   <polygon class="fil12" points="1386,951 1272,951 1272,872 1386,872 "/>
   <polygon class="fil9" points="1499,909 1400,909 1400,872 1499,872 "/>
   <polygon class="fil12" points="1499,951 1400,951 1400,928 1499,928 "/>
   <path class="fil6" d="M1476 1730c-6,52 -13,75 0,83 13,7 87,0 104,0 16,0 16,-34 -11,-49 -27,-14 -33,-65 -33,-65l-60 31z"/>
   <path class="fil6" d="M1138 1730c-6,52 -14,75 0,83 13,7 87,0 103,0 17,0 17,-34 -10,-49 -27,-14 -33,-65 -33,-65l-60 31z"/>
   <path class="fil16" d="M1226 1528c-1,56 -5,109 -12,141l-104 0 -39 -226 -4 -24c-22,0 -40,-17 -40,-39l0 -1c1,-45 8,-115 47,-141 43,-30 129,33 137,48 8,15 13,67 15,129 1,36 1,75 0,113z"/>
   <path class="fil17" d="M1152 1669l-42 0 -39 -226c5,-8 10,-14 15,-18 15,-9 83,-10 119,-10 4,0 7,0 10,0l3 4 8 0c1,19 1,38 1,58 0,17 0,34 -1,51l0 0c-37,16 -67,113 -74,141z"/>
   <path class="fil18" d="M1568 1097c33,-12 56,2 62,12 6,11 9,20 7,25 -3,5 -12,0 -12,0 0,0 -29,6 -51,2 -22,-3 -6,-39 -6,-39z"/>
   <path class="fil19" d="M1602 1137l-19 0c-1,0 -1,0 -2,0 3,0 6,0 9,0 7,0 15,0 21,-1 -3,1 -6,1 -9,1z"/>
   <path class="fil20" d="M1592 1138c-3,0 -6,0 -9,-1l19 0c-3,1 -6,1 -10,1z"/>
   <path class="fil21" d="M1590 1137c-3,0 -6,0 -9,0 -1,0 -3,-1 -5,-1 2,-2 2,-5 2,-9 0,-5 -1,-11 -4,-18 0,-1 0,-1 -1,-2 18,9 50,23 49,25 0,1 -4,3 -11,4 -6,1 -14,1 -21,1z"/>
   <path class="fil18" d="M1253 703c12,51 3,111 -41,116l0 18c1,14 -10,25 -24,25 -13,0 -24,-11 -24,-24l0 -18c0,0 -36,-15 -43,-37 -7,-22 0,-3 0,-3l-4 -90 137 -2 -1 15z"/>
   <path class="fil21" d="M1212 831c-5,-1 -12,-1 -19,-1l-23 -9c0,0 3,0 7,0 8,0 22,0 35,-2l0 12z"/>
   <path class="fil22" d="M1255 712c39,-24 32,-75 4,-57 0,0 -43,-44 -111,-20 -67,24 -75,81 -61,116 14,35 101,53 101,53l40 -43 27 -49z"/>
   <path class="fil22" d="M1259 655c7,-19 -10,-44 -26,-44 -16,0 -15,27 -15,27l27 35 14 -18z"/>
   <path class="fil23" d="M1230 746c0,6 -5,61 -18,73l-54 1c0,0 -60,-12 -70,-62 -1,-6 -2,-11 -2,-16 17,36 92,42 132,-4 0,0 5,4 12,8z"/>
   <path class="fil18" d="M1245 735c-11,-20 -24,-11 -27,0 -2,12 22,41 28,30 5,-10 -1,-30 -1,-30z"/>
   <path class="fil21" d="M1247 761c1,-3 1,-7 1,-11 1,5 2,9 0,11 0,0 0,0 -1,0z"/>
   <path class="fil21" d="M1246 761c-6,0 -15,-6 -16,-16 0,-6 1,-10 5,-10 2,0 5,2 9,6 0,0 2,4 4,9 0,4 0,8 -1,11 0,0 -1,0 -1,0z"/>
   <path class="fil9" d="M1576 1136c-5,11 -141,32 -176,25 -35,-7 -63,-58 -63,-58l0 135 -263 0c0,0 -25,-124 -40,-207 -5,-34 -9,-61 -9,-70 1,-17 5,-27 7,-32l0 0c2,-4 4,-5 4,-5 0,0 31,-57 106,-66l2 -23c61,-12 105,0 107,11 2,10 0,20 0,20 0,0 73,-19 126,57 52,75 73,134 73,134 0,0 100,21 112,34 5,5 10,11 12,18 4,10 5,21 2,27z"/>
   <path class="fil24" d="M1337 1238l-198 0 -65 0c0,0 -25,-124 -40,-207l0 0 -2 -102 0 0c0,0 64,2 163,3 98,0 103,61 130,98 26,37 44,99 91,99 18,1 43,2 68,2 42,0 83,-4 89,-21l1 -1c3,7 4,13 4,18 0,4 0,7 -2,9l0 0c0,0 0,0 0,1 -8,9 -107,25 -157,25 -8,0 -15,0 -19,-1 -35,-7 -63,-58 -63,-58l0 34 0 50 0 51z"/>
   <path class="fil12" d="M1553 1661c0,3 -1,6 -1,8l-104 0 -43 -250 -187 0 -53 -66 -91 -115 263 0c4,0 8,0 12,0 72,1 183,13 200,48 6,13 11,50 14,98 4,89 2,213 -10,277z"/>
   <path class="fil25" d="M1544 1669l-96 0 -43 -250 -179 0 -8 0 -3 -4 -50 -62 5 -77 36 -38 131 0c4,0 8,0 12,0 -14,121 69,156 128,156 3,0 5,0 8,0 31,-2 58,-6 78,-10 1,29 2,61 2,94 0,69 -4,140 -12,183l0 0 -9 8z"/>
   <polygon class="fil26" points="1551,1730 1447,1730 1438,1669 1560,1669 "/>
   <polygon class="fil26" points="1213,1730 1109,1730 1100,1669 1222,1669 "/>
   <polygon class="fil16" points="1038,1802 1028,1802 1028,1767 1038,1767 "/>
   <polygon class="fil16" points="1105,1802 1095,1802 1095,1767 1105,1767 "/>
   <polygon class="fil16" points="1171,1802 1162,1802 1162,1767 1171,1767 "/>
   <path class="fil10" d="M1268 1419l-272 0c-18,0 -33,-15 -33,-33l0 -316c0,-63 51,-115 115,-115l108 0c64,0 116,52 116,115l0 316c0,18 -15,33 -34,33z"/>
   <path class="fil27" d="M1268 1419l-272 0c-18,0 -33,-15 -33,-33l0 -316c0,-63 51,-115 115,-115l108 0c64,0 116,52 116,115l0 316c0,18 -15,33 -34,33z"/>
   <path class="fil28" d="M1210 1419l-272 0c-18,0 -33,-15 -33,-33l0 -316c0,-63 51,-115 115,-115l108 0c64,0 116,52 116,115l0 316c0,18 -15,33 -34,33z"/>
   <path class="fil27" d="M1323 1487l-295 0c-19,0 -34,-15 -34,-34l0 0c0,-18 15,-34 34,-34l295 0c18,0 33,16 33,34l0 0c0,19 -15,34 -33,34z"/>
   <path class="fil28" d="M1236 1487l-294 0c-19,0 -34,-15 -34,-34l0 0c0,-18 15,-34 34,-34l294 0c19,0 34,16 34,34l0 0c0,19 -15,34 -34,34z"/>
   <polygon class="fil29" points="1114,1756 1087,1756 1087,1515 1114,1515 "/>
   <path class="fil30" d="M1139 1515l-80 0c-6,0 -11,-5 -11,-10l0 -18 102 0 0 18c0,5 -5,10 -11,10z"/>
   <polygon class="fil30" points="1180,1774 1018,1774 1018,1750 1180,1750 "/>
   <polygon class="fil6" points="1086,1487 1051,1487 1051,1223 1086,1223 "/>
   <path class="fil30" d="M1091 1173l-45 0c-11,0 -19,8 -19,19l0 54c0,11 8,19 19,19l45 0c11,0 19,-8 19,-19l0 -54c0,-11 -8,-19 -19,-19z"/>
   <path class="fil6" d="M1070 1196l-3 0c-11,0 -19,9 -19,19l0 8c0,11 8,19 19,19l3 0c11,0 19,-8 19,-19l0 -8c0,-10 -8,-19 -19,-19z"/>
   <path class="fil29" d="M1048 1805c0,8 -7,14 -15,14 -8,0 -15,-6 -15,-14 0,-8 7,-15 15,-15 8,0 15,7 15,15z"/>
   <path class="fil29" d="M1115 1805c0,8 -7,14 -15,14 -8,0 -15,-6 -15,-14 0,-8 7,-15 15,-15 8,0 15,7 15,15z"/>
   <path class="fil29" d="M1181 1805c0,8 -6,14 -14,14 -8,0 -15,-6 -15,-14 0,-8 7,-15 15,-15 8,0 14,7 14,15z"/>
   <polygon class="fil12" points="824,1119 684,830 836,686 823,672 661,826 807,1128 "/>
   <path class="fil12" d="M700 828c0,15 -13,28 -28,28 -15,0 -27,-13 -27,-28 0,-15 12,-27 27,-27 15,0 28,12 28,27z"/>
   <path class="fil6" d="M700 828l-10 0c0,5 -2,10 -5,13 -3,3 -8,5 -13,5 -5,0 -9,-2 -12,-5 -4,-3 -6,-8 -6,-13 0,-5 2,-9 6,-12 3,-4 7,-6 12,-6 5,0 10,2 13,6 3,3 5,7 5,12l10 0 9 0c0,-20 -16,-37 -37,-37 -20,0 -37,17 -37,37 0,21 17,37 37,37 21,0 37,-16 37,-37l-9 0z"/>
   <path class="fil12" d="M822 627l0 0c12,-9 29,-5 37,8l6 9 -43 28 -5 -6c-10,-12 -8,-30 5,-39z"/>
   <path class="fil10" d="M944 765c0,12 -10,23 -23,23 -13,0 -23,-11 -23,-23 0,-13 10,-24 23,-24 13,0 23,11 23,24z"/>
   <path class="fil6" d="M822 672l43 110c3,8 12,11 19,8 19,-8 52,-24 69,-45 5,-6 4,-14 -1,-19l-87 -82 -43 28z"/>
   <polygon class="fil6" points="886,1135 746,1135 746,1112 886,1112 "/>
   <polygon class="fil31" points="1720,520 1280,520 1280,80 1720,80 "/>
   <path class="fil12" d="M1594 80c0,45 -36,81 -81,81 -44,0 -80,-36 -80,-81 0,-44 36,-80 80,-80 45,0 81,36 81,80z"/>
   <polygon class="fil12" points="1656,284 1402,284 1402,239 1656,239 "/>
   <polygon class="fil8" points="1402,284 1358,284 1358,239 1402,239 "/>
   <polygon class="fil12" points="1656,352 1402,352 1402,308 1656,308 "/>
   <polygon class="fil15" points="1656,399 1527,399 1527,376 1656,376 "/>
   <polygon class="fil8" points="1402,352 1358,352 1358,308 1402,308 "/>
   <polygon class="fil32" points="1899,228 1682,228 1682,117 1899,117 "/>
   <polygon class="fil32" points="1743,213 1707,279 1804,218 "/>
   <path class="fil8" d="M1751 172c0,6 -4,10 -10,10 -5,0 -10,-4 -10,-10 0,-5 5,-10 10,-10 6,0 10,5 10,10z"/>
   <path class="fil8" d="M1800 172c0,6 -4,10 -10,10 -5,0 -10,-4 -10,-10 0,-5 5,-10 10,-10 6,0 10,5 10,10z"/>
   <path class="fil8" d="M1849 172c0,6 -4,10 -10,10 -5,0 -10,-4 -10,-10 0,-5 5,-10 10,-10 6,0 10,5 10,10z"/>
   <polygon class="fil10" points="1318,497 1128,497 1128,366 1318,366 "/>
   <path class="fil8" d="M1164 435l39 20 0 -10c0,-1 -1,-2 -1,-2 0,-1 -1,-1 -2,-2l-13 -7c-1,-1 -2,-1 -3,-1 -1,-1 -2,-1 -3,-1 1,0 2,-1 3,-1 1,0 2,-1 3,-1l13 -7c1,-1 2,-1 2,-2 0,0 1,-1 1,-2l0 -10 -39 20 0 6z"/>
   <path class="fil8" d="M1243 393l-6 0c-2,0 -3,0 -5,1 -1,1 -2,2 -3,4l-27 71 7 0c0,0 1,0 2,-1 1,0 1,0 2,-1 1,0 1,-1 2,-1 1,-1 1,-2 1,-3l27 -70z"/>
   <path class="fil8" d="M1281 429l-39 -20 0 10c0,1 1,2 1,2 0,1 1,1 2,2l13 7c1,0 2,1 3,1 1,0 2,1 3,1 -1,0 -2,0 -3,1 -1,0 -2,0 -3,1l-13 7c-1,1 -2,1 -2,2 0,0 -1,1 -1,2l0 10 39 -20 0 -6z"/>
   <path class="fil8" d="M1513 43c-4,0 -8,1 -11,2 -4,2 -6,5 -8,8 -2,4 -3,7 -3,11 0,4 1,7 3,11 2,3 5,6 8,7 3,2 7,3 11,3 4,0 7,-1 10,-3 4,-1 6,-4 8,-7 2,-4 3,-7 3,-11 0,-4 -1,-8 -3,-11 -2,-3 -4,-6 -7,-8 -4,-2 -7,-3 -11,-3l0 1zm24 44c3,0 5,2 7,4 2,2 3,5 3,8l0 5c0,2 -1,3 -2,4 -1,1 -3,2 -4,2l-56 0c-1,0 -3,-1 -4,-2 -1,-1 -2,-2 -2,-4l0 -5c0,-3 1,-6 3,-8 2,-2 4,-4 7,-4l9 -3c5,3 9,5 14,5 6,0 11,-1 16,-5l9 3z"/>
   <path class="fil9" d="M1830 1699c6,53 12,106 -2,114 -13,7 -87,0 -103,0 -16,0 -16,-34 10,-49 27,-14 33,-65 33,-65l62 0z"/>
   <path class="fil9" d="M2155 1730c6,52 13,75 0,83 -13,7 -88,0 -104,0 -16,0 -16,-34 11,-49 27,-14 27,-40 27,-40l66 6z"/>
   <path class="fil23" d="M1722 438c-22,44 -19,89 25,91 44,2 -25,-91 -25,-91z"/>
   <path class="fil18" d="M1729 484c14,54 52,106 96,89l9 17c6,13 22,17 34,11 13,-7 18,-22 11,-35l-9 -17c0,0 26,-31 22,-55 -4,-24 -2,-3 -2,-3l-41 -86 -128 67 8 12z"/>
   <path class="fil21" d="M1830 584l-5 -11c19,-8 40,-20 40,-20l-17 20c-6,3 -12,7 -18,11z"/>
   <path class="fil22" d="M1893 479c-1,28 -8,51 -13,57 -12,12 -51,26 -51,26 -17,-2 -47,-15 -71,-35 -26,-22 -45,-51 -37,-85 14,-58 99,-85 144,-50 24,20 30,56 28,87z"/>
   <path class="fil23" d="M1893 479c-1,28 -8,51 -13,57 -12,12 -51,26 -51,26 -17,-2 -47,-15 -71,-35 0,-9 3,-18 9,-23 6,-5 16,-4 26,-3 20,2 44,3 51,-33l10 -4c0,0 23,9 39,15z"/>
   <path class="fil18" d="M1752 511c1,-24 17,-23 25,-13 9,10 1,48 -10,41 -10,-6 -15,-28 -15,-28z"/>
   <path class="fil21" d="M1763 536c0,0 0,0 -1,0 -2,0 -4,-5 -5,-10 0,0 0,0 0,0 2,4 4,7 6,10 0,0 0,0 0,0z"/>
   <path class="fil33" d="M1757 526c0,0 0,0 0,0 0,0 0,0 0,0 0,0 0,0 0,0z"/>
   <path class="fil21" d="M1763 536c-2,-3 -4,-6 -6,-10 0,0 0,0 0,0 -1,-5 -1,-11 -1,-11 2,-7 5,-10 8,-10 3,0 5,3 8,8 4,10 -3,22 -9,23z"/>
   <path class="fil10" d="M1858 409c-21,9 -30,38 -14,59 11,14 31,7 31,7l-17 -66z"/>
   <path class="fil22" d="M1848 442c-7,-32 26,-59 56,-44 7,4 13,10 17,18 10,27 10,63 43,68 0,0 -40,43 -80,17 -23,-15 -32,-40 -36,-59z"/>
   <path class="fil34" d="M1968 567c65,1 136,85 156,140 20,55 -33,121 -33,121l-123 -261z"/>
   <path class="fil18" d="M1573 873c-28,-36 -41,-38 -50,-31 -9,7 -42,27 -48,31 -6,5 1,12 12,10 10,-2 10,-2 10,-2 0,0 -5,26 8,38 13,11 54,-5 54,-5l14 -41z"/>
   <path class="fil28" d="M2089 1112c-6,28 -23,79 -46,140 -72,191 -197,482 -197,482l-106 -10 158 -787 4 -16c0,0 70,-104 125,-81 11,5 21,14 30,26 12,17 22,40 29,66 14,52 17,119 3,180z"/>
   <path class="fil28" d="M2169 1731l-91 3 -35 -482 -16 -218 0 -168 104 0c17,22 31,52 43,89l0 0c52,159 56,449 -5,776z"/>
   <polygon class="fil27" points="2040,1259 2128,1098 2049,1342 "/>
   <path class="fil27" d="M2174 955c-1,-1 -32,-15 -88,-23 -17,-3 -37,-5 -59,-5 -37,-1 -80,1 -129,10l4 -16c0,0 70,-104 125,-81 11,5 21,14 30,26l74 0c17,22 31,52 43,89z"/>
   <path class="fil32" d="M2131 866l-229 55 -76 -102c0,0 -42,98 -69,112 -27,15 -200,-9 -200,-9 -5,-5 -5,-15 -4,-25l0 0c3,-20 11,-41 11,-41l135 -13c0,0 41,-111 58,-164 16,-53 51,-60 51,-60 0,0 1,-13 0,-17 -1,-4 55,-46 94,-46l9 8c0,0 36,-15 83,17 24,17 61,95 90,165l0 0c27,63 47,120 47,120z"/>
   <path class="fil34" d="M1718 936c-26,0 -59,-2 -89,-5 -9,-1 -18,-2 -26,-3 -27,-3 -46,-6 -46,-6 -2,-1 -3,-4 -3,-6 -1,-3 -1,-6 -1,-10 0,-3 0,-6 0,-9l0 0c9,-4 20,-6 32,-6 19,0 40,4 62,7 22,3 43,7 61,7 19,0 34,-4 42,-14 26,-34 54,-121 70,-121 2,0 4,1 6,5 14,30 43,76 80,84 3,1 7,1 11,1 49,0 174,-39 167,-114 27,63 47,120 47,120l-229 55 -76 -102c0,0 -42,98 -69,112 -6,4 -21,5 -39,5z"/>
   <rect class="fil35" x="402" y="148" width="69.3412" height="1600.72"/>
  </g>
 </g>
</svg>
